<?xml version="1.0" encoding="UTF-8" standalone="no"?><!DOCTYPE svg PUBLIC "-//W3C//DTD SVG 1.1//EN" "http://www.w3.org/Graphics/SVG/1.1/DTD/svg11.dtd"><svg width="100%" height="100%" viewBox="0 0 208 170" version="1.1" xmlns="http://www.w3.org/2000/svg" xmlns:xlink="http://www.w3.org/1999/xlink" xml:space="preserve" xmlns:serif="http://www.serif.com/" style="fill-rule:evenodd;clip-rule:evenodd;stroke-linejoin:round;stroke-miterlimit:2;"><path d="M60.281,96.173c1.044,-13.274 1.044,-13.282 0.986,-13.571c-0.225,-1.133 -5.295,-0.782 -5.726,0.046c-4.909,9.436 -5.461,41.714 -19.606,50.823c-7.725,4.975 -28.772,-2.228 -23.94,-23.826c4.269,-19.08 14.696,-23.365 24.857,-35.155c7.984,-9.264 1.939,-12.485 -2.749,-16.883c-18.913,-17.743 -23.896,-19.94 -30.362,-24.194c-10.488,-6.901 1.11,-43.623 34.279,-30.669c31.09,12.143 18.536,48.561 19.958,51.965c0.141,0.339 0.201,0.48 4.58,0.268c2.615,-0.127 14.143,-23.731 28.668,-38.136c19.386,-19.224 55.163,-2.964 25.696,33.213c-20.691,25.403 -39.962,19.411 -44.788,23.698c-4.555,4.045 21.232,35.978 35.704,61.523c10.726,18.934 2.156,33.751 -9.774,34.475c-28.973,1.758 -33.866,-34.084 -34.961,-40.6c-2.754,-16.398 -3.764,-16.345 -2.822,-32.977Z"/><path d="M117.775,106.7c0.423,-1.453 3.653,-12.557 12.804,-13.923c11.933,-1.782 15.835,5.022 17.135,0.431c0.577,-2.039 -7.89,-7.443 -14.387,-16.382c-9.75,-13.415 0.822,-24.689 11.109,-17.492c15.625,10.932 13.038,29.357 13.542,30.374c1.4,2.829 23.04,-8.913 33.155,-12.346c20.273,-6.879 22.639,19.395 -0.585,21.689c-1.155,0.114 -8.291,0.819 -14.505,0.28c-8.056,-0.699 -13.986,-4.102 -14.037,-2.179c-0.085,3.156 0.758,3.375 8.607,6.371c22.671,8.655 11.552,21.98 2.929,20.753c-13.495,-1.92 -16.129,-18.149 -22.024,-19.407c-1.641,-0.35 -10.991,6.473 -19.073,15.182c-3.595,3.874 -16.092,0.513 -14.67,-13.352Z"/></svg>